<?xml version="1.0" encoding="utf-8"?>
<!-- Generator: Adobe Illustrator 27.3.1, SVG Export Plug-In . SVG Version: 6.00 Build 0)  -->
<svg version="1.1" xmlns="http://www.w3.org/2000/svg" xmlns:xlink="http://www.w3.org/1999/xlink" x="0px" y="0px"
	 viewBox="0 0 500 500" style="enable-background:new 0 0 500 500;" xml:space="preserve">
<style type="text/css">
	.st0{fill:#F9F7F7;}
	.st1{font-family:'GCFodaxDemo-Regular';}
	.st2{font-size:57px;}
	.st3{font-family:'MyriadPro-Regular';}
	.st4{font-size:25px;}
</style>
<g id="BACKGROUND">
</g>
<g id="OBJECTS">
</g>
<g id="TEXTS">
	<g>
		<g>
			<path class="st0" d="M111.73,211.5v15.4h8.74c8.5,0,15.39-6.89,15.39-15.39v-0.01H111.73z"/>
			<path class="st0" d="M28.08,288.49h24.13V273.1h-8.74C34.97,273.1,28.08,279.99,28.08,288.49z"/>
			<rect x="58.87" y="264.36" class="st0" width="15.39" height="39.53"/>
			<path class="st0" d="M74.27,211.5h15.4v54.93h15.4V211.5c0-8.5-6.89-15.39-15.39-15.39H74.27c-8.5,0-15.39,6.89-15.39,15.39
				v24.13h15.39V211.5z"/>
			<path class="st0" d="M83,242.3H43.47V226.9h8.74v-15.4h-8.74c-8.5,0-15.39,6.89-15.39,15.39v30.8H83V242.3z"/>
			<path class="st0" d="M111.73,242.3v15.4h8.73v15.4H80.93v15.39h39.54c8.5,0,15.39-6.89,15.39-15.39v-30.8H111.73z"/>
			<rect x="89.67" y="295.15" class="st0" width="15.4" height="8.74"/>
		</g>
		<g>
			<g>
				<text transform="matrix(1 0 0 1 152.6081 255.2272)" class="st0 st1 st2">SP Branding </text>
			</g>
			<g>
				<text transform="matrix(1 0 0 1 152.6078 285.7225)"><tspan x="0" y="0" class="st0 st3 st4">(</tspan><tspan x="7.1" y="0" class="st0 st1 st4">India</tspan><tspan x="57.27" y="0" class="st0 st3 st4">)</tspan><tspan x="64.37" y="0" class="st0 st1 st4"> Private Limited </tspan></text>
			</g>
		</g>
	</g>
</g>
</svg>
